<?xml version="1.0" encoding="UTF-8"?>
<!DOCTYPE svg PUBLIC "-//W3C//DTD SVG 1.1//EN" "http://www.w3.org/Graphics/SVG/1.1/DTD/svg11.dtd">
<svg xmlns="http://www.w3.org/2000/svg" version="1.1" width="1051px" height="875px" style="shape-rendering:geometricPrecision; text-rendering:geometricPrecision; image-rendering:optimizeQuality; fill-rule:evenodd; clip-rule:evenodd" xmlns:xlink="http://www.w3.org/1999/xlink">
<g><path style="opacity:0.98" fill="#540206" d="M 561.5,8.5 C 574.846,8.03331 583.679,14.0333 588,26.5C 589.465,43.4682 590.798,60.4682 592,77.5C 597.585,107.011 602.085,136.678 605.5,166.5C 604.302,188.261 597.969,208.427 586.5,227C 610.985,235.408 634.652,245.742 657.5,258C 678.282,271.772 697.615,287.439 715.5,305C 716.332,305.688 716.998,305.521 717.5,304.5C 722.715,293.114 730.048,283.281 739.5,275C 772.862,250.046 810.528,237.546 852.5,237.5C 880.473,237.955 908.14,241.122 935.5,247C 955.369,250.486 974.869,250.319 994,246.5C 1006.21,248.379 1012.37,255.546 1012.5,268C 1011.02,280.428 1007.52,292.261 1002,303.5C 986.871,337.108 969.204,369.108 949,399.5C 931.5,425 910,446.5 884.5,464C 861.618,479.019 836.618,484.852 809.5,481.5C 811.051,518.521 815.551,555.188 823,591.5C 825.863,603.422 829.53,615.089 834,626.5C 844.634,646.069 852.301,666.736 857,688.5C 858.613,702.391 858.446,716.225 856.5,730C 856.337,742.818 849.67,748.818 836.5,748C 826.038,742.602 815.705,736.935 805.5,731C 791.828,723.662 777.828,717.162 763.5,711.5C 766.581,728.407 769.081,745.407 771,762.5C 773.646,786.246 768.313,807.913 755,827.5C 743.287,838.643 730.454,840.143 716.5,832C 703.463,819.961 690.129,808.294 676.5,797C 653.194,780.334 627.528,768.667 599.5,762C 562.5,755.667 525.5,749.333 488.5,743C 444.959,733.724 403.625,718.557 364.5,697.5C 347.448,764.362 304.281,798.362 235,799.5C 206.09,798.696 179.923,790.03 156.5,773.5C 149.677,777.372 142.344,779.039 134.5,778.5C 102.512,776.767 77.6789,762.767 60,736.5C 47.8066,715.464 46.4733,693.797 56,671.5C 62.4995,660.001 71.8328,651.668 84,646.5C 83.1213,634.911 85.1213,623.911 90,613.5C 97.376,604.391 106.876,598.724 118.5,596.5C 107.61,581.754 98.1097,566.087 90,549.5C 79.0666,519.745 85.9,495.245 110.5,476C 99.5058,475.086 90.3392,470.586 83,462.5C 79.1636,454.462 78.497,446.129 81,437.5C 91.952,413.882 109.452,397.048 133.5,387C 144.647,382.729 155.981,379.062 167.5,376C 148.263,362.551 127.263,352.551 104.5,346C 96.2438,339.235 94.4104,331.068 99,321.5C 112.933,307.902 128.767,297.068 146.5,289C 155.902,285.566 165.568,283.233 175.5,282C 195.158,280.902 214.825,279.902 234.5,279C 245.054,277.815 255.054,274.815 264.5,270C 289.252,255.791 314.919,243.457 341.5,233C 348.167,231 354.833,229 361.5,227C 362.199,218.048 361.866,209.048 360.5,200C 360.602,179.758 365.768,160.925 376,143.5C 396.784,107.049 425.284,78.2161 461.5,57C 487.454,40.8544 514.454,26.5211 542.5,14C 548.828,11.6729 555.162,9.83957 561.5,8.5 Z"/></g>
<g><path style="opacity:1" fill="#fefefe" d="M 576.5,149.5 C 576.792,158.915 576.125,168.248 574.5,177.5C 573.065,185.98 570.899,194.313 568,202.5C 562.18,215.31 557.18,228.31 553,241.5C 571.817,248.662 590.65,255.829 609.5,263C 644.731,278.238 675.565,299.738 702,327.5C 709.284,337.72 717.284,347.386 726,356.5C 731.221,342.172 737.221,328.172 744,314.5C 757.108,294.743 774.941,280.909 797.5,273C 829.367,262.268 862.034,258.934 895.5,263C 910.485,265.131 925.485,267.131 940.5,269C 957.223,269.388 973.89,269.555 990.5,269.5C 987.157,279.188 982.99,288.521 978,297.5C 960.164,331.192 939.831,363.192 917,393.5C 907.197,404.304 897.03,414.804 886.5,425C 870.975,438.762 852.975,447.762 832.5,452C 823.167,452.667 813.833,452.667 804.5,452C 803.092,446.869 801.759,441.703 800.5,436.5C 814.468,436.011 827.468,432.178 839.5,425C 887.172,391.865 918.172,347.032 932.5,290.5C 932.703,288.61 932.037,287.11 930.5,286C 901.332,283.134 872.332,284.134 843.5,289C 841.541,289.931 839.541,290.764 837.5,291.5C 837.167,292.167 836.833,292.833 836.5,293.5C 838.97,301.344 839.803,309.344 839,317.5C 835.629,322.777 830.796,325.943 824.5,327C 813.133,327.178 801.799,327.344 790.5,327.5C 797.991,336.477 804.491,346.143 810,356.5C 812.824,362.718 813.157,369.051 811,375.5C 804.775,381.865 797.275,386.031 788.5,388C 778.617,388.787 768.95,390.62 759.5,393.5C 760.246,394.736 760.579,396.07 760.5,397.5C 764.817,426.337 767.484,455.337 768.5,484.5C 767.359,503.167 766.192,521.834 765,540.5C 761.982,575.801 765.816,610.301 776.5,644C 776.167,644.5 775.833,645 775.5,645.5C 750.328,631.126 723.328,623.459 694.5,622.5C 702.352,658.405 705.852,694.739 705,731.5C 695.535,724.515 685.368,718.682 674.5,714C 648.646,703.536 621.979,695.869 594.5,691C 552.566,685.123 511.233,676.456 470.5,665C 427.548,650.692 387.881,630.359 351.5,604C 336.605,592.26 321.605,580.76 306.5,569.5C 306.992,551.378 305.826,533.378 303,515.5C 294.63,471.767 268.796,454.6 225.5,464C 218.453,467.183 212.12,471.35 206.5,476.5C 186.924,459.548 164.258,448.715 138.5,444C 130.841,443.5 123.174,443.334 115.5,443.5C 114.022,443.762 112.689,443.429 111.5,442.5C 117.211,431.621 125.211,422.787 135.5,416C 155.489,405.058 176.489,396.558 198.5,390.5C 200.752,390.084 202.252,388.751 203,386.5C 203.805,383.304 203.638,380.304 202.5,377.5C 183.706,356.205 161.373,339.705 135.5,328C 148.123,317.025 162.789,310.358 179.5,308C 195.498,306.667 211.498,305.333 227.5,304C 249.311,302.973 269.977,297.64 289.5,288C 307.609,277.612 326.276,268.279 345.5,260C 367.636,251.05 390.636,245.717 414.5,244C 436.528,242.284 458.528,240.284 480.5,238C 473.43,230.651 466.264,223.484 459,216.5C 452.594,207.154 451.927,197.487 457,187.5C 461.901,182.383 467.901,179.716 475,179.5C 485.269,181.486 495.436,183.653 505.5,186C 503.513,176.966 502.68,167.799 503,158.5C 505.32,147.41 512.153,142.91 523.5,145C 531.746,148.243 539.246,152.743 546,158.5C 549.701,128.771 545.868,100.104 534.5,72.5C 533.311,71.5713 531.978,71.238 530.5,71.5C 495.572,87.9239 466.072,111.257 442,141.5C 428.514,161.136 420.681,182.802 418.5,206.5C 419.165,211.481 419.498,216.481 419.5,221.5C 410.833,221.833 402.167,222.167 393.5,222.5C 393.581,168.842 414.248,125.009 455.5,91C 485.547,67.0009 518.214,47.0009 553.5,31C 558.047,29.2889 562.714,28.6222 567.5,29C 568.126,29.7504 568.626,30.5838 569,31.5C 569.333,47.8333 569.667,64.1667 570,80.5C 573.368,103.388 575.535,126.388 576.5,149.5 Z"/></g>
<g><path style="opacity:1" fill="#95ddc5" d="M 530.5,71.5 C 529.982,72.5774 529.648,73.7441 529.5,75C 533.961,93.9129 535.628,113.08 534.5,132.5C 502.499,123.404 487.333,135.404 489,168.5C 468.129,159.26 451.462,164.26 439,183.5C 434.053,196.019 434.553,208.352 440.5,220.5C 433.532,221.497 426.532,221.83 419.5,221.5C 419.498,216.481 419.165,211.481 418.5,206.5C 420.681,182.802 428.514,161.136 442,141.5C 466.072,111.257 495.572,87.9239 530.5,71.5 Z"/></g>
<g><path style="opacity:1" fill="#733030" d="M 576.5,149.5 C 577.655,156.321 577.821,163.321 577,170.5C 576.844,173.191 576.011,175.524 574.5,177.5C 576.125,168.248 576.792,158.915 576.5,149.5 Z"/></g>
<g><path style="opacity:1" fill="#95ddc5" d="M 932.5,290.5 C 918.172,347.032 887.172,391.865 839.5,425C 827.468,432.178 814.468,436.011 800.5,436.5C 798.24,428.722 795.574,421.056 792.5,413.5C 816.858,405.138 830.525,388.138 833.5,362.5C 833.683,356.557 832.016,351.224 828.5,346.5C 851.651,340.891 861.318,326.224 857.5,302.5C 866.725,300.021 876.058,297.854 885.5,296C 901.252,294.408 916.919,292.575 932.5,290.5 Z"/></g>
<g><path style="opacity:1" fill="#550409" d="M 441.5,388.5 C 443.12,400.424 443.787,412.424 443.5,424.5C 443.5,425.833 443.5,427.167 443.5,428.5C 441.777,430.253 440.277,432.253 439,434.5C 437.188,435.977 435.355,437.31 433.5,438.5C 432.167,439.167 430.833,439.833 429.5,440.5C 424.346,440.706 419.346,440.039 414.5,438.5C 412.833,436.167 410.833,434.167 408.5,432.5C 408.008,430.181 407.008,428.181 405.5,426.5C 405.5,426.167 405.5,425.833 405.5,425.5C 405.365,420.047 406.032,414.714 407.5,409.5C 412.996,394.091 412.829,378.758 407,363.5C 402.937,355.877 396.77,350.71 388.5,348C 376.708,343.775 364.541,341.608 352,341.5C 342.888,343.02 333.721,343.52 324.5,343C 321.833,340.667 321.833,338.333 324.5,336C 342.175,328.776 360.509,325.776 379.5,327C 414.583,332.916 435.25,353.416 441.5,388.5 Z"/></g>
<g><path style="opacity:1" fill="#b99698" d="M 202.5,377.5 C 203.638,380.304 203.805,383.304 203,386.5C 202.252,388.751 200.752,390.084 198.5,390.5C 202.002,386.927 203.336,382.594 202.5,377.5 Z"/></g>
<g><path style="opacity:1" fill="#95dcc4" d="M 760.5,397.5 C 770.484,420.96 777.984,445.294 783,470.5C 784.952,497.5 786.952,524.5 789,551.5C 790.883,570.68 793.883,589.68 798,608.5C 800.012,617.537 803.012,626.204 807,634.5C 813.333,647.833 819.667,661.167 826,674.5C 827.998,679.659 829.165,684.992 829.5,690.5C 830.113,696.271 829.446,701.604 827.5,706.5C 803.401,693.801 778.068,684.467 751.5,678.5C 750.378,677.844 749.045,677.511 747.5,677.5C 745.117,677.361 743.117,678.028 741.5,679.5C 740.167,680.933 738.667,682.267 737,683.5C 735.075,686.507 734.241,689.84 734.5,693.5C 738.563,719.36 740.73,745.36 741,771.5C 740.176,781.804 737.342,791.471 732.5,800.5C 698.189,765.667 657.189,742.167 609.5,730C 564.189,722.421 519.189,713.421 474.5,703C 433.607,691.719 395.273,674.719 359.5,652C 354.007,638.175 344.673,627.841 331.5,621C 323.117,617.098 314.617,613.598 306,610.5C 306.312,596.854 306.478,583.187 306.5,569.5C 321.605,580.76 336.605,592.26 351.5,604C 387.881,630.359 427.548,650.692 470.5,665C 511.233,676.456 552.566,685.123 594.5,691C 621.979,695.869 648.646,703.536 674.5,714C 685.368,718.682 695.535,724.515 705,731.5C 705.852,694.739 702.352,658.405 694.5,622.5C 723.328,623.459 750.328,631.126 775.5,645.5C 775.833,645 776.167,644.5 776.5,644C 765.816,610.301 761.982,575.801 765,540.5C 766.192,521.834 767.359,503.167 768.5,484.5C 767.484,455.337 764.817,426.337 760.5,397.5 Z"/></g>
<g><path style="opacity:1" fill="#743132" d="M 441.5,388.5 C 442.748,391.942 443.581,395.608 444,399.5C 444.823,408.01 444.657,416.344 443.5,424.5C 443.787,412.424 443.12,400.424 441.5,388.5 Z"/></g>
<g><path style="opacity:1" fill="#a17274" d="M 407.5,409.5 C 406.032,414.714 405.365,420.047 405.5,425.5C 403.828,419.896 404.495,414.563 407.5,409.5 Z"/></g>
<g><path style="opacity:1" fill="#be9d9e" d="M 405.5,426.5 C 407.008,428.181 408.008,430.181 408.5,432.5C 406.031,431.393 405.031,429.393 405.5,426.5 Z"/></g>
<g><path style="opacity:1" fill="#ac8385" d="M 443.5,428.5 C 442.371,434.127 439.038,437.46 433.5,438.5C 435.355,437.31 437.188,435.977 439,434.5C 440.277,432.253 441.777,430.253 443.5,428.5 Z"/></g>
<g><path style="opacity:1" fill="#af888a" d="M 408.5,432.5 C 410.833,434.167 412.833,436.167 414.5,438.5C 411.5,437.5 409.5,435.5 408.5,432.5 Z"/></g>
<g><path style="opacity:1" fill="#ab8284" d="M 414.5,438.5 C 419.346,440.039 424.346,440.706 429.5,440.5C 426.024,441.643 422.358,441.81 418.5,441C 416.934,440.392 415.6,439.558 414.5,438.5 Z"/></g>
<g><path style="opacity:1" fill="#95dac3" d="M 115.5,443.5 C 123.174,443.334 130.841,443.5 138.5,444C 164.258,448.715 186.924,459.548 206.5,476.5C 202.255,481.98 198.755,487.98 196,494.5C 185.052,481.215 172.552,469.715 158.5,460C 144.761,452.593 130.428,447.093 115.5,443.5 Z"/></g>
<g><path style="opacity:1" fill="#550409" d="M 679.5,514.5 C 680.054,521.153 680.388,527.82 680.5,534.5C 679.068,536.647 677.235,536.98 675,535.5C 662.738,487.62 633.571,472.453 587.5,490C 579.943,494.224 572.943,499.224 566.5,505C 563.408,506.546 560.408,508.046 557.5,509.5C 549.05,510.434 542.05,507.768 536.5,501.5C 535.492,499.456 534.492,497.456 533.5,495.5C 533.119,490.198 534.119,485.198 536.5,480.5C 538.5,479.167 540.167,477.5 541.5,475.5C 554.221,467.974 567.888,462.474 582.5,459C 613.92,453.803 641.086,461.97 664,483.5C 672.354,492.209 677.521,502.542 679.5,514.5 Z"/></g>
<g><path style="opacity:1" fill="#a67a7c" d="M 541.5,475.5 C 540.167,477.5 538.5,479.167 536.5,480.5C 537.167,477.833 538.833,476.167 541.5,475.5 Z"/></g>
<g><path style="opacity:1" fill="#56050a" d="M 421.5,549.5 C 421.5,546.833 421.5,544.167 421.5,541.5C 420.209,541.263 419.209,541.596 418.5,542.5C 406.114,546.171 393.447,547.338 380.5,546C 366.192,542.688 355.692,534.521 349,521.5C 344.725,508.619 346.225,496.452 353.5,485C 356.298,484.439 358.131,485.606 359,488.5C 360.494,500.318 365.327,510.485 373.5,519C 380.372,523.891 388.038,525.724 396.5,524.5C 408.945,524.236 421.278,522.903 433.5,520.5C 434.5,520.833 435.5,521.167 436.5,521.5C 438.799,533.628 441.632,545.628 445,557.5C 452.528,571.521 464.361,578.187 480.5,577.5C 489.55,576.91 498.55,575.91 507.5,574.5C 513.121,573.089 515.288,575.089 514,580.5C 492.558,599.99 468.725,603.49 442.5,591C 428.997,580.495 421.997,566.662 421.5,549.5 Z"/></g>
<g><path style="opacity:1" fill="#bb9a9b" d="M 536.5,480.5 C 534.119,485.198 533.119,490.198 533.5,495.5C 532.359,492.36 532.192,489.027 533,485.5C 533.697,483.416 534.864,481.749 536.5,480.5 Z"/></g>
<g><path style="opacity:1" fill="#fdfdfd" d="M 235.5,492.5 C 252.84,489.746 264.673,496.412 271,512.5C 275.499,526.833 278.166,541.499 279,556.5C 279.667,574.833 279.667,593.167 279,611.5C 244.881,618.8 220.381,638.133 205.5,669.5C 167.571,633.725 137.071,592.392 114,545.5C 107.422,531.71 108.089,518.377 116,505.5C 129.456,492.397 144.289,490.897 160.5,501C 164.689,505.221 168.522,509.721 172,514.5C 184.589,539.346 196.923,564.346 209,589.5C 210.989,593.818 213.989,597.152 218,599.5C 219.653,599.18 220.653,598.18 221,596.5C 221.167,592.167 221.333,587.833 221.5,583.5C 219.519,560.846 218.019,538.179 217,515.5C 218.314,503.707 224.481,496.041 235.5,492.5 Z"/></g>
<g><path style="opacity:1" fill="#c1a3a4" d="M 533.5,495.5 C 534.492,497.456 535.492,499.456 536.5,501.5C 534.025,500.313 533.025,498.313 533.5,495.5 Z"/></g>
<g><path style="opacity:1" fill="#a77b7d" d="M 536.5,501.5 C 542.05,507.768 549.05,510.434 557.5,509.5C 548.257,512.711 541.257,510.045 536.5,501.5 Z"/></g>
<g><path style="opacity:1" fill="#844748" d="M 679.5,514.5 C 681.471,521.109 681.804,527.776 680.5,534.5C 680.388,527.82 680.054,521.153 679.5,514.5 Z"/></g>
<g><path style="opacity:1" fill="#b69395" d="M 418.5,542.5 C 419.209,541.596 420.209,541.263 421.5,541.5C 421.5,544.167 421.5,546.833 421.5,549.5C 421.083,546.841 420.083,544.508 418.5,542.5 Z"/></g>
<g><path style="opacity:1" fill="#fdfdfd" d="M 123.5,618.5 C 128.777,617.931 133.777,618.765 138.5,621C 146.877,632.922 155.377,644.755 164,656.5C 172,663.833 180,671.167 188,678.5C 195.178,691.967 191.344,700.467 176.5,704C 148.732,705.366 127.566,694.199 113,670.5C 106.068,659.769 103.735,648.102 106,635.5C 109.135,626.862 114.968,621.195 123.5,618.5 Z"/></g>
<g><path style="opacity:1" fill="#fdfdfd" d="M 328.5,667.5 C 328.641,688.188 318.474,699.521 298,701.5C 292.083,700.875 286.25,699.875 280.5,698.5C 280.66,696.801 280.494,695.134 280,693.5C 279.439,692.978 278.772,692.645 278,692.5C 265.625,703.557 251.125,708.057 234.5,706C 229.572,704.073 226.406,700.573 225,695.5C 223.499,686.838 225.166,678.838 230,671.5C 248.804,644.344 273.971,635.511 305.5,645C 315.682,650.016 323.349,657.516 328.5,667.5 Z"/></g>
<g><path style="opacity:1" fill="#95dcc4" d="M 328.5,667.5 C 333.181,675.8 334.681,684.8 333,694.5C 324.798,735.035 300.298,759.201 259.5,767C 232.904,774.141 207.571,771.141 183.5,758C 180.308,755.308 176.975,752.808 173.5,750.5C 175.155,741.642 174.488,732.975 171.5,724.5C 186.907,724.55 198.741,718.217 207,705.5C 216.035,720.431 229.202,726.264 246.5,723C 262.379,720.915 273.713,712.748 280.5,698.5C 286.25,699.875 292.083,700.875 298,701.5C 318.474,699.521 328.641,688.188 328.5,667.5 Z"/></g>
<g><path style="opacity:1" fill="#fdfcfc" d="M 144.5,747.5 C 139.537,748.254 134.537,748.587 129.5,748.5C 102.364,744.191 85.1969,728.858 78,702.5C 76.656,689.547 80.656,678.547 90,669.5C 103.271,696.776 124.438,714.61 153.5,723C 156.482,723.498 159.482,723.665 162.5,723.5C 162.585,732.029 159.585,739.195 153.5,745C 150.625,746.302 147.625,747.135 144.5,747.5 Z"/></g>
<g><path style="opacity:1" fill="#74685f" d="M 751.5,678.5 C 748.14,678.616 744.807,678.949 741.5,679.5C 743.117,678.028 745.117,677.361 747.5,677.5C 749.045,677.511 750.378,677.844 751.5,678.5 Z"/></g>
<g><path style="opacity:1" fill="#6d4e46" d="M 829.5,690.5 C 830.489,695.975 830.822,701.642 830.5,707.5C 829.209,707.737 828.209,707.404 827.5,706.5C 829.446,701.604 830.113,696.271 829.5,690.5 Z"/></g>
<g><path style="opacity:1" fill="#874b4c" d="M 144.5,747.5 C 141.814,748.991 138.814,749.657 135.5,749.5C 133.304,749.495 131.304,749.162 129.5,748.5C 134.537,748.587 139.537,748.254 144.5,747.5 Z"/></g>
</svg>
